<svg xmlns="http://www.w3.org/2000/svg" width="23" height="49" viewBox="0 0 23 49">
  <path fill="#FFF" d="M7.55720114,2.49792446 C9.44779587,0.697705474 12.136945,0.0896696865 14.6737028,0.013885857 C17.3566151,-0.0102378776 20.0384684,0.0043540399 22.7213807,0.00541313068 C22.7319716,2.83565674 22.732913,5.66695944 22.7203216,8.49708537 C20.9864723,8.49402578 19.2514462,8.50132174 17.5175969,8.49402578 C16.418143,8.42553791 15.2891523,9.25892468 15.0893371,10.3488468 C15.0629775,12.2426188 15.0798053,14.1374499 15.0808644,16.0313395 C17.6238591,16.0418128 20.1668537,16.0281623 22.7097307,16.0376941 C22.5235661,18.7773266 22.1837156,21.5044854 21.7850268,24.2210532 C19.5388129,24.2421174 17.2913045,24.2189351 15.0452083,24.2327032 C15.0252033,32.3129775 15.0556816,40.3932519 15.0294397,48.4735262 C11.6930683,48.4871767 8.3546965,48.4671716 5.01844285,48.4829403 C4.95525043,40.4016069 5.02362063,32.3161548 4.98372821,24.2337623 C3.35602335,24.2168169 1.72737707,24.2454123 0.0997898874,24.2201118 C0.106026755,21.503544 0.101908069,18.7870938 0.102849483,16.0714673 C1.72937758,16.0515799 3.35708244,16.0757037 4.98372821,16.059935 C5.03315244,13.4190333 4.93418629,10.775072 5.03527062,8.13640612 C5.19837061,6.04670233 5.99480688,3.94134752 7.55720114,2.49792446 Z"/>
</svg>
