<svg xmlns="http://www.w3.org/2000/svg" width="49" height="50" viewBox="0 0 49 50">
  <path fill="#FFF" d="M48.3225843,20.2217166 C48.6340432,21.8857935 48.804113,23.6282092 48.804113,25.4480155 C48.8042315,39.6657341 39.2856547,49.7765331 24.9124437,49.7765331 C11.1619135,49.7765331 0.0241771732,38.6387968 0.0241771732,24.8882666 C0.0241771732,11.1377363 11.1619135,0 24.9124437,0 C31.6327498,0 37.2471872,2.47306409 41.5567683,6.48635633 L34.5401734,13.5021216 L34.5401734,13.486122 C31.9273794,10.9970584 28.6143956,9.72183098 24.9124437,9.72183098 C16.6996713,9.72183098 10.026416,16.659376 10.026416,24.8729781 C10.026416,33.0849209 16.6995528,40.0391766 24.9124437,40.0391766 C32.3635167,40.0391766 37.4339677,35.7767647 38.4777342,29.9283776 L24.9124437,29.9283776 L24.9124437,20.2217166 L48.3225843,20.2217166 Z"/>
</svg>
